PathFileType	4	(X/Y/Z)	RBDS024static.trc
DataRate	CameraRate	NumFrames	NumMarkers	Units	OrigDataRate	OrigDataStartFrame	OrigNumFrames
150.000000	150.000000	4	48	mm	150.000000	75	150
Frame#	Time	L.Ankle			L.Ankle.Medial			L.ASIS			L.GTR			L.Heel.Bottom			L.Heel.Lateral			L.Heel.Top			L.HF			L.Iliac.Crest			L.Knee			L.Knee.Medial			L.MT1			L.MT2			L.MT5			L.PSIS			L.Shank.Bottom.Lateral			L.Shank.Bottom.Medial			L.Shank.Top.Lateral			L.Shank.Top.Medial			L.Thigh.Bottom.Lateral			L.Thigh.Bottom.Medial			L.Thigh.Top.Lateral			L.Thigh.Top.Medial			L.TT			R.Ankle			R.Ankle.Medial			R.ASIS			R.GTR			R.Heel.Bottom			R.Heel.Lateral			R.Heel.Top			R.HF			R.Iliac.Crest			R.Knee			R.Knee.Medial			R.MT1			R.MT2			R.MT5			R.PSIS			R.Shank.Bottom.Lateral			R.Shank.Bottom.Medial			R.Shank.Top.Lateral			R.Shank.Top.Medial			R.Thigh.Bottom.Lateral			R.Thigh.Bottom.Medial			R.Thigh.Top.Lateral			R.Thigh.Top.Medial			R.TT			
		X1	Y1	Z1	X2	Y2	Z2	X3	Y3	Z3	X4	Y4	Z4	X5	Y5	Z5	X6	Y6	Z6	X7	Y7	Z7	X8	Y8	Z8	X9	Y9	Z9	X10	Y10	Z10	X11	Y11	Z11	X12	Y12	Z12	X13	Y13	Z13	X14	Y14	Z14	X15	Y15	Z15	X16	Y16	Z16	X17	Y17	Z17	X18	Y18	Z18	X19	Y19	Z19	X20	Y20	Z20	X21	Y21	Z21	X22	Y22	Z22	X23	Y23	Z23	X24	Y24	Z24	X25	Y25	Z25	X26	Y26	Z26	X27	Y27	Z27	X28	Y28	Z28	X29	Y29	Z29	X30	Y30	Z30	X31	Y31	Z31	X32	Y32	Z32	X33	Y33	Z33	X34	Y34	Z34	X35	Y35	Z35	X36	Y36	Z36	X37	Y37	Z37	X38	Y38	Z38	X39	Y39	Z39	X40	Y40	Z40	X41	Y41	Z41	X42	Y42	Z42	X43	Y43	Z43	X44	Y44	Z44	X45	Y45	Z45	X46	Y46	Z46	X47	Y47	Z47	X48	Y48	Z48	

76	0.5	718.4060668945313	108.3252716064453	1047.061767578125	736.3541870117188	115.3184967041016	1133.746948242188	906.56884765625	1014.511413574219	1097.137817382813	812.775146484375	922.4404296875	1031.555786132813	645.6764526367188	41.11006927490234	1090.185424804688	667.962158203125	61.45400238037109	1047.853515625	654.7232055664063	85.34495544433594	1091.615356445313	773.443115234375	468.3413391113281	1036.466430664063	812.1714477539063	1083.387329101563	1044.316040039063	785.7620239257813	530.0172119140625	1040.955810546875	767.7236938476563	517.9664916992188	1166.489135742188	869.6009521484375	54.65522766113281	1128.135009765625	876.002685546875	66.16616058349609	1089.1162109375	834.5836791992188	49.09618377685547	1013.258666992188	721.3743896484375	1055.426879882813	1160.182983398438	728.2601928710938	183.1027526855469	1039.25830078125	683.280517578125	187.9710235595703	1063.789306640625	730.8411254882813	262.0527954101563	1021.037658691406	685.177734375	271.2149963378906	1047.472412109375	780.8425903320313	654.3770141601563	1022.697021484375	720.029541015625	656.1526489257813	1060.815795898438	778.6954956054688	764.8258666992188	1020.726501464844	723.97021484375	766.744140625	1062.127685546875	823.4131469726563	450.4264831542969	1090.6298828125	705.6148071289063	109.4452056884766	1410.83642578125	726.787353515625	115.277587890625	1322.477661132813	895.4557495117188	1011.551696777344	1336.71240234375	805.9430541992188	923.992919921875	1396.173583984375	635.5546875	43.67504501342773	1366.408447265625	666.7660522460938	63.11092376708984	1411.38330078125	644.0220947265625	87.39910125732422	1366.0009765625	776.0938720703125	475.5066833496094	1408.83837890625	821.974609375	1081.650512695313	1384.805053710938	794.589599609375	537.1605834960938	1400.5126953125	776.7936401367188	515.0488891601563	1275.545288085938	852.82421875	56.80710983276367	1323.87255859375	860.9788818359375	73.50832366943359	1369.0771484375	827.9636840820313	51.71323013305664	1440.749145507813	722.1082763671875	1052.078002929688	1263.582397460938	705.7974243164063	191.7332763671875	1417.463623046875	667.7064819335938	200.0804138183594	1377.309936523438	707.2786254882813	272.3945617675781	1429.029052734375	671.7299194335938	279.6239013671875	1389.2421875	771.8723754882813	656.1739501953125	1413.033081054688	715.1791381835938	657.3489379882813	1366.093139648438	770.8893432617188	765.9859008789063	1412.223022460938	717.9633178710938	766.7880859375	1367.485595703125	827.081787109375	449.6880493164063	1358.997436523438	
77	0.5066666666666667	718.4000244140625	108.3084411621094	1047.054565429688	736.3739624023438	115.3068008422852	1133.735961914063	906.5406494140625	1014.512878417969	1097.15185546875	812.7611694335938	922.4390258789063	1031.55908203125	645.6737060546875	41.1112060546875	1090.181640625	667.9646606445313	61.45154571533203	1047.856567382813	654.7191162109375	85.34619140625	1091.60888671875	773.4247436523438	468.3422546386719	1036.47802734375	812.1425170898438	1083.398193359375	1044.31201171875	785.755859375	530.0235595703125	1040.950561523438	767.7269287109375	517.9574584960938	1166.487915039063	869.6146240234375	54.6571159362793	1128.129028320313	876.0032348632813	66.16038513183594	1089.127563476563	834.5753784179688	49.09502029418945	1013.236328125	721.3475952148438	1055.429321289063	1160.187866210938	728.2544555664063	183.1038055419922	1039.252563476563	683.2823486328125	187.9649963378906	1063.784057617188	730.8377075195313	262.0481262207031	1021.041564941406	685.1791381835938	271.2076416015625	1047.47119140625	780.8225708007813	654.388916015625	1022.698364257813	720.0118408203125	656.1546020507813	1060.814086914063	778.67626953125	764.8211059570313	1020.734252929688	723.9600219726563	766.7422485351563	1062.141967773438	823.4197387695313	450.4346313476563	1090.645874023438	705.6118774414063	109.443000793457	1410.840454101563	726.7808227539063	115.2840194702148	1322.478393554688	895.4276123046875	1011.551452636719	1336.726196289063	805.923828125	923.9923095703125	1396.18115234375	635.5620727539063	43.67144012451172	1366.404663085938	666.7597045898438	63.11102676391602	1411.376342773438	644.021484375	87.39674377441406	1365.994995117188	776.09423828125	475.5048217773438	1408.83837890625	821.953857421875	1081.673095703125	1384.81787109375	794.576904296875	537.1553955078125	1400.51171875	776.8063354492188	515.0515747070313	1275.54541015625	852.8380737304688	56.80818939208984	1323.866577148438	860.9774169921875	73.49733734130859	1369.079223632813	827.9583740234375	51.70426177978516	1440.750244140625	722.080078125	1052.075317382813	1263.58349609375	705.379150390625	191.7024383544922	1417.621337890625	667.7463989257813	199.4739227294922	1376.88916015625	707.270751953125	272.3930358886719	1429.024047851563	671.7254638671875	279.6177368164063	1389.25048828125	771.8662109375	656.1659545898438	1413.031982421875	715.1760864257813	657.3402099609375	1366.089965820313	770.8626708984375	765.97998046875	1412.22900390625	717.9561157226563	766.7886962890625	1367.480712890625	827.0936889648438	449.7025451660156	1358.997680664063	
78	0.5133333333333334	718.4078369140625	108.3089447021484	1047.055786132813	736.3622436523438	115.3105316162109	1133.744995117188	906.5239868164063	1014.50927734375	1097.164672851563	812.7363891601563	922.4408569335938	1031.570190429688	645.6723022460938	41.11429977416992	1090.182006835938	667.9717407226563	61.44508743286133	1047.8564453125	654.7138061523438	85.34205627441406	1091.60888671875	773.415283203125	468.3369750976563	1036.479125976563	812.1239624023438	1083.388061523438	1044.3193359375	785.7413330078125	530.0296630859375	1040.953979492188	767.721435546875	517.9542846679688	1166.492431640625	869.6045532226563	54.66249847412109	1128.123657226563	876.0103149414063	66.16181182861328	1089.12451171875	834.5770874023438	49.09512329101563	1013.256958007813	721.3363647460938	1055.419677734375	1160.191040039063	728.2550659179688	183.1034240722656	1039.251098632813	683.2811889648438	187.96630859375	1063.77978515625	730.8314208984375	262.0451049804688	1021.036682128906	685.1729125976563	271.2114562988281	1047.471557617188	780.810302734375	654.3894653320313	1022.694641113281	719.9896240234375	656.1588745117188	1060.82470703125	778.6591186523438	764.8276977539063	1020.739135742188	723.9407958984375	766.7440185546875	1062.137939453125	823.3922119140625	450.4204406738281	1090.637939453125	705.6087646484375	109.4377670288086	1410.836303710938	726.794677734375	115.2788772583008	1322.469482421875	895.4031982421875	1011.551818847656	1336.723754882813	805.912841796875	923.9884033203125	1396.183349609375	635.5601196289063	43.66565704345703	1366.405151367188	666.7681274414063	63.11491012573242	1411.368286132813	644.0225830078125	87.39051055908203	1365.992553710938	776.0870971679688	475.501708984375	1408.83935546875	821.9207763671875	1081.663208007813	1384.828125	794.581298828125	537.1610107421875	1400.508666992188	776.7894287109375	515.0536499023438	1275.539306640625	852.8328857421875	56.80595016479492	1323.86962890625	860.9786376953125	73.50351715087891	1369.081420898438	827.966064453125	51.70859527587891	1440.742309570313	722.064697265625	1052.069946289063	1263.586181640625	705.377685546875	191.6993560791016	1417.620727539063	667.7445068359375	199.4766082763672	1376.889770507813	707.27197265625	272.383544921875	1429.030151367188	671.7349853515625	279.6109924316406	1389.240234375	771.8486328125	656.1668090820313	1413.036010742188	715.1602172851563	657.3391723632813	1366.088989257813	770.8494873046875	765.9739379882813	1412.2333984375	717.935302734375	766.7767333984375	1367.485595703125	827.076416015625	449.6907653808594	1359.008178710938	
79	0.52	718.4060668945313	108.314079284668	1047.05810546875	736.36669921875	115.3083114624023	1133.74169921875	906.4943237304688	1014.512634277344	1097.169311523438	812.71630859375	922.4443969726563	1031.560302734375	645.6734619140625	41.10812759399414	1090.18310546875	667.9619140625	61.45524215698242	1047.84130859375	654.7174682617188	85.34739685058594	1091.60693359375	773.41015625	468.3425598144531	1036.480590820313	812.0966186523438	1083.387939453125	1044.303100585938	785.724365234375	530.031005859375	1040.94482421875	767.7135009765625	517.9578857421875	1166.494995117188	869.6028442382813	54.65974807739258	1128.122680664063	876.006103515625	66.16019439697266	1089.136352539063	834.5806884765625	49.0931510925293	1013.246276855469	721.3059692382813	1055.42236328125	1160.190551757813	728.2508544921875	183.1055908203125	1039.261108398438	683.2728881835938	187.9624328613281	1063.773681640625	730.8389282226563	262.0452880859375	1021.036071777344	685.163818359375	271.2116088867188	1047.466430664063	780.7798461914063	654.396240234375	1022.693481445313	719.9736938476563	656.1521606445313	1060.825317382813	778.6375732421875	764.8310546875	1020.728393554688	723.9285278320313	766.7416381835938	1062.14453125	823.3831176757813	450.4258728027344	1090.666259765625	705.619140625	109.4362716674805	1410.8408203125	726.7805786132813	115.2747421264648	1322.476318359375	895.3735961914063	1011.550476074219	1336.721557617188	805.8842163085938	923.990966796875	1396.1767578125	635.5607299804688	43.66292953491211	1366.403076171875	666.7643432617188	63.10159301757813	1411.373046875	644.0179443359375	87.39544677734375	1365.987670898438	776.072509765625	475.5042114257813	1408.835571289063	821.9013061523438	1081.664916992188	1384.827392578125	794.5667114257813	537.1600952148438	1400.511474609375	776.7546997070313	515.06201171875	1275.546264648438	852.8316650390625	56.81058502197266	1323.872314453125	860.9805908203125	73.51181793212891	1369.082885742188	827.95556640625	51.70869064331055	1440.747436523438	722.0358276367188	1052.062133789063	1263.583740234375	705.3741455078125	191.6970977783203	1417.627075195313	667.7406616210938	199.4720611572266	1376.88818359375	707.263671875	272.3927307128906	1429.033569335938	671.7176513671875	279.617919921875	1389.242065429688	771.8312377929688	656.1621704101563	1413.036743164063	715.1456909179688	657.3334350585938	1366.083862304688	770.83642578125	765.9732055664063	1412.230834960938	717.9161987304688	766.7799682617188	1367.479858398438	827.06884765625	449.6880493164063	1359.01318359375	
